Coordinates
version=1
nRows=8
nColumns=40
inDegrees=yes

Units are S.I. units (second, meters, Newtons, ...)
Angles are in degrees.

endheader
time	pelvis_tilt	pelvis_list	pelvis_rotation	pelvis_tx	pelvis_ty	pelvis_tz	hip_flexion_r	hip_adduction_r	hip_rotation_r	knee_angle_r	knee_angle_r_beta	ankle_angle_r	subtalar_angle_r	mtp_angle_r	hip_flexion_l	hip_adduction_l	hip_rotation_l	knee_angle_l	knee_angle_l_beta	ankle_angle_l	subtalar_angle_l	mtp_angle_l	lumbar_extension	lumbar_bending	lumbar_rotation	arm_flex_r	arm_add_r	arm_rot_r	elbow_flex_r	pro_sup_r	wrist_flex_r	wrist_dev_r	arm_flex_l	arm_add_l	arm_rot_l	elbow_flex_l	pro_sup_l	wrist_flex_l	wrist_dev_l
     30.66000000	     -0.32808499	     -1.48819800	     -1.88575946	      1.02085391	      0.91891604	      0.45739458	     15.39206658	     -9.89024366	     -7.21687678	     61.44363737	     61.44363737	      6.85930551	    -18.17924428	      6.34424144	     16.66049123	      0.29236499	     -5.68591352	     31.13719708	     31.13719708	     17.96596743	    -15.99551343	      4.95839168	     -9.10362812	      5.02881587	      2.63833800	     18.39327177	    -13.77378026	    -13.71649884	     33.42337925	     45.10546812	      0.00000000	      0.00000000	     20.35698066	    -12.24863887	      2.75661797	     37.97797102	     45.15747588	      0.00000000	      0.00000000
     30.67921429	     -0.34525654	     -1.63900588	     -2.29971918	      1.01979966	      0.91800490	      0.45621516	     16.96603804	     -9.67098294	     -6.74722044	     62.56148222	     62.56148222	      7.10035285	    -18.21167371	      6.20085827	     16.53277570	      0.24484372	     -5.68212496	     31.57105219	     31.57105219	     18.35789008	    -16.62063285	      5.00735475	     -9.27590860	      5.30365400	      2.25713948	     15.21846240	    -13.47795941	    -13.66041331	     31.82916691	     45.15969818	      0.00000000	      0.00000000	     21.47655020	    -12.50655337	      2.47122489	     38.92399121	     45.22453249	      0.00000000	      0.00000000
     30.69842857	     -0.35068269	     -1.80926074	     -2.77364738	      1.01874680	      0.91735534	      0.45516593	     18.50442972	     -9.35273211	     -6.23163161	     63.41848677	     63.41848677	      7.36264420	    -18.30522931	      6.29895824	     16.31438665	      0.13941641	     -5.78558649	     31.90736935	     31.90736935	     18.78316085	    -16.95194135	      5.15004365	     -9.50290424	      5.67798180	      2.07613664	     11.95543269	    -13.32088810	    -13.63722453	     30.19519715	     45.21754228	      0.00000000	      0.00000000	     22.56718905	    -12.67218494	      2.08845567	     40.27331419	     45.30386799	      0.00000000	      0.00000000
     30.71764286	     -0.37412812	     -1.98169183	     -3.27844805	      1.01769480	      0.91696586	      0.45422673	     19.97447171	     -8.99441401	     -5.75859413	     63.89373511	     63.89373511	      7.70238456	    -18.39099861	      6.57857851	     16.02244000	      0.01269527	     -6.00708756	     32.09336697	     32.09336697	     19.24194587	    -17.18080700	      5.38898231	     -9.73781523	      6.09033420	      1.99533532	      8.66814551	    -13.19204351	    -13.65939112	     28.55176432	     45.28020568	      0.00000000	      0.00000000	     23.61409002	    -12.86135276	      1.61870700	     41.91340803	     45.39349512	      0.00000000	      0.00000000
     30.73685714	     -0.34080297	     -2.20053711	     -3.77979134	      1.01667428	      0.91711082	      0.45369858	     21.20098268	     -8.57907556	     -5.46492108	     63.83835693	     63.83835693	      8.05839852	    -18.43260905	      6.52172011	     15.49301615	     -0.17469677	     -6.22675526	     31.95945294	     31.95945294	     19.56916419	    -17.32265464	      5.43644589	    -10.02741336	      6.50371803	      1.11028289	      5.92179290	    -12.80939424	    -13.69617050	     27.45895177	     45.30999286	      0.00000000	      0.00000000	     24.49525341	    -13.74815287	      1.29612209	     42.51556149	     45.44453851	      0.00000000	      0.00000000
     30.75607143	     -0.53330668	     -2.36997733	     -4.41614288	      1.01549889	      0.91742274	      0.45351742	     22.66643947	     -8.04150238	     -4.97122034	     63.40193183	     63.40193183	      8.84739042	    -18.44977902	      8.24360083	     15.18601343	     -0.36532892	     -6.61014896	     31.79880370	     31.79880370	     20.22304333	    -17.27728563	      6.58868198	    -10.24068131	      6.83030343	      1.28685406	      2.88279470	    -12.74116276	    -14.31707884	     25.71161624	     45.49767220	      0.00000000	      0.00000000	     24.47012649	    -13.81646510	     -0.26027437	     47.49067011	     45.70685733	      0.00000000	      0.00000000
     30.77528571	     -0.73944707	     -2.53840169	     -4.99881805	      1.01430123	      0.91824349	      0.45367166	     23.85076151	     -7.55611535	     -4.73682000	     62.22004283	     62.22004283	      9.21747413	    -18.40435375	      8.20999314	     14.72055918	     -0.57224909	     -7.01806612	     31.27017960	     31.27017960	     20.32707050	    -17.27663792	      6.70226053	    -10.25340522	      7.15915621	      0.61031001	      0.35099226	    -12.55798607	    -14.38579600	     24.69210212	     45.53094080	      0.00000000	      0.00000000	     25.37994064	    -14.57016471	     -0.59150913	     48.15375961	     45.75731959	      0.00000000	      0.00000000
     30.79450000	     -0.93137153	     -2.70262503	     -5.70062378	      1.01316200	      0.91964575	      0.45430091	     24.79623239	     -6.95520203	     -4.41837705	     60.36403215	     60.36403215	      9.39372184	    -18.40628198	      7.68640982	     14.00430381	     -0.80842316	     -7.62112003	     30.31984668	     30.31984668	     20.23172029	    -17.14887724	      6.58178182	    -10.47113789	      7.44861784	      0.84638442	     -2.50472995	    -12.47380272	    -15.13664833	     23.75103957	     45.69847095	      0.00000000	      0.00000000	     25.57885314	    -14.68644695	     -1.80150430	     52.23681645	     45.96964803	      0.00000000	      0.00000000
